<?xml version="1.0" encoding="UTF-8"?>
<svg width="2568px" height="258px" viewBox="0 0 2568 258" version="1.1" xmlns="http://www.w3.org/2000/svg" xmlns:xlink="http://www.w3.org/1999/xlink">
    <!-- Generator: Sketch 45.2 (43514) - http://www.bohemiancoding.com/sketch -->
    <title>Group 4</title>
    <desc>Created with Sketch.</desc>
    <defs></defs>
    <g id="Page-1" stroke="none" stroke-width="1" fill="none" fill-rule="evenodd">
        <g id="Group-4">
            <path d="M0.656298579,230 L2567.00899,230" id="Path-84" stroke="#673AB7" stroke-width="4"></path>
            <g id="Group-3" transform="translate(1654.000000, 2.000000)">
                <g id="Group-14-Copy" transform="translate(105.000000, 0.000000)">
                    <g id="Group-18" transform="translate(98.000000, 80.000000)">
                        <path d="M32.7764086,146.534733 C32.7764086,141.352391 32.5332781,59.0079015 32.5332781,59.0079015 L129.474538,60.0836745 L131.332567,148.651823 L163.947888,148.651823 L163.37845,45.6366684 L156.165152,33.5275224 L145.068162,28.9143321 L125.955544,28.5149051 L20.3639553,28.3464567 L10.9663206,31.7371196 L3.83875723,39.8251971 L1.98072815,49.5122586 L0.76635514,148.263882 C0.76635514,148.263882 32.7764086,151.717075 32.7764086,146.534733 Z" id="Path-67"></path>
                        <polyline id="Path-36-Copy" stroke="#673AB7" stroke-width="4" points="30.3376676 147.956332 30.3376676 59.0551181 128.812124 59.0551181 129.189422 147.956332"></polyline>
                        <path d="M31.7033726,71.4566929 L127.761421,71.4566929" id="Path-38-Copy-2" stroke="#673AB7" stroke-width="3"></path>
                        <path d="M31.7033726,83.2677165 L127.761421,83.2677165" id="Path-38-Copy-3" stroke="#673AB7" stroke-width="3"></path>
                        <path d="M0.808750616,149.753777 L0.76515471,44.3431883 C0.761500818,35.5084374 7.91618578,28.3464567 16.7603085,28.3464567 L145.886839,28.3464567 C154.724373,28.3464567 161.891572,35.5172671 161.895218,44.3434333 L161.938821,149.874351" id="Path-35-Copy-2" stroke="#673AB7" stroke-width="4"></path>
                        <g id="Group" transform="translate(56.360423, 0.000000)">
                            <g id="Oval-8">
                                <g id="path-1-link" fill="#FFFFFF">
                                    <ellipse id="path-1" cx="24.2484762" cy="24.2125984" rx="24.2484762" ry="24.2125984"></ellipse>
                                </g>
                                <ellipse id="Oval" stroke="#673AB7" stroke-width="3" cx="24.2484762" cy="24.2125984" rx="22.7484762" ry="22.7125984"></ellipse>
                            </g>
                            <path d="M34.3521858,29.807615 C32.5824455,32.9889708 29.5149943,35.0075676 26.1708363,35.5741913 C25.9296426,32.9712638 25.2844865,30.4480178 24.2797593,28.0870859 C23.880236,27.1486154 23.4259632,26.2337543 22.9184207,25.351356 C22.588444,24.77883 22.2347919,24.2195843 21.8619035,23.6736187 C19.7015182,23.4345744 17.5796055,22.9225473 15.5568339,22.1537688 C19.3463864,25.6243387 21.7908771,30.3816166 22.34873,35.5859959 C21.0791338,35.3779388 19.8243346,34.9544466 18.6376024,34.2978124 C13.5769739,31.5001081 11.446183,25.4487444 13.4082863,20.1986221 C15.7921087,21.2949798 18.3076258,22.0003082 20.8616155,22.3146073 C21.895937,22.442983 22.937657,22.506433 23.979377,22.506433 C24.6452492,22.506433 25.3111214,22.4798725 25.9740341,22.4267516 C27.251029,20.6855643 28.7544203,19.1022643 30.4531343,17.7196435 C25.5123627,19.276383 20.1099198,19.0063514 15.3156402,16.8947929 C16.7909169,15.0975335 18.7737363,13.7886919 21.0598974,13.1350088 C22.1149349,12.83399 23.1906884,12.6849562 24.260523,12.6849562 C26.1959915,12.6849562 28.1107439,13.1748496 29.8494101,14.1369293 C31.1323239,14.8452089 32.2450703,15.7733503 33.1521361,16.8667569 C31.0080277,18.3777533 29.1361871,20.2000976 27.583965,22.2496817 C26.5851568,23.5688524 25.7180432,24.9824604 24.9974216,26.4668963 C25.8586162,28.5017245 26.4593809,30.6545993 26.7686416,32.8723998 C27.8813879,27.811152 30.8230632,23.2634068 35.0639291,20.170586 C35.1719484,20.4553734 35.2710894,20.7460631 35.3554332,21.0411796 C36.2062698,24.001198 35.8496583,27.114677 34.3521858,29.807615 Z M39.013291,19.9964673 C37.882788,16.0625644 35.2829271,12.8030028 31.6946159,10.8183444 C28.1063048,8.83368598 23.9571813,8.36149959 20.0107788,9.48884459 C16.0658561,10.6161896 12.7971636,13.2073124 10.8069457,16.7855998 C6.69925422,24.1738412 9.38345894,33.5187049 16.7923967,37.6149218 C19.1466247,38.9178611 21.6991347,39.5361301 24.2176113,39.5361301 C29.6244933,39.5346546 34.8760052,36.6867804 37.6800669,31.6476663 C39.6702849,28.0693789 40.143794,23.9303701 39.013291,19.9964673 L39.013291,19.9964673 Z" id="Fill-12-Copy-5" fill="#673AB7" fill-rule="nonzero"></path>
                        </g>
                        <path d="M7.87832466,148.520067 L7.86347013,45.7360113 C7.86347013,45.7360113 10.4203056,34.9584293 19.6152578,34.9584293 C28.81021,34.9584293 54.7647824,34.2519685 54.7647824,34.2519685 L62.3871272,45.7360113 L26.2708516,45.7360113 C26.2708516,45.7360113 20.8129041,46.0772177 20.8129041,54.7839236 C20.8129041,63.4906295 20.8277586,147.587471 20.8277586,147.587471" id="Path-20" fill="#673AB7" fill-rule="nonzero" opacity="0.0916511194"></path>
                        <g id="Group-3" transform="translate(44.531898, 100.393701)">
                            <polyline id="Path-48" stroke="#673AB7" stroke-width="3" fill="#FFFFFF" fill-rule="nonzero" points="10.4827647 21.247376 16.9366862 0 55.8846037 0 63.1774774 21.247376"></polyline>
                            <g id="Rectangle-10" transform="translate(0.000000, 19.000000)">
                                <g id="path-2-link" fill="#FFFFFF">
                                    <path d="M-1.42108547e-14,10.8326663 C-1.42108547e-14,5.1820239 4.57349711,0.6012732 10.230592,0.6012732 L61.5736987,0.6012732 C67.2238987,0.6012732 71.8042908,5.1807815 71.8042908,10.8326663 L71.8042908,19.0647436 C71.8042908,20.1689352 70.9094165,21.0640593 69.8088905,21.0640593 L1.99540023,21.0640593 C0.893371112,21.0640593 -1.42108547e-14,20.1716411 -1.42108547e-14,19.0647436 L-1.42108547e-14,10.8326663 Z" id="path-2"></path>
                                </g>
                                <path d="M1.5,10.8326663 C1.5,6.0078859 5.40448826,2.1012732 10.230592,2.1012732 L61.5736987,2.1012732 C66.3959025,2.1012732 70.3042908,6.0096396 70.3042908,10.8326663 L70.3042908,19.0647436 C70.3042908,19.3404713 70.0810246,19.5640593 69.8088905,19.5640593 L1.99540023,19.5640593 C1.72120901,19.5640593 1.5,19.3426234 1.5,19.0647436 L1.5,10.8326663 Z" id="Shape" stroke="#673AB7" stroke-width="3"></path>
                            </g>
                            <path d="M27.2056075,29.5275591 C27.2056075,29.5275591 31.978261,31.6263878 36.4837765,31.6263878 C40.989292,31.6263878 45.3167083,29.5275591 45.3167083,29.5275591" id="Path-31" stroke="#673AB7" stroke-width="2" stroke-linecap="round"></path>
                            <ellipse id="Oval-7" fill="#673AB7" fill-rule="nonzero" cx="12.448283" cy="30.7092274" rx="3.27586396" ry="3.26744487"></ellipse>
                            <ellipse id="Oval-7-Copy-2" fill="#673AB7" fill-rule="nonzero" cx="59.620724" cy="30.7092274" rx="3.27586396" ry="3.26744487"></ellipse>
                            <g id="Rectangle" transform="translate(5.000000, 37.000000)">
                                <g id="path-3-link" fill="#FFFFFF">
                                    <path d="M0.24138233,0.8957949 L14.9072008,0.8957949 L14.9072008,4.0049464 C14.9072008,5.7220834 13.5142543,7.1140979 11.7969579,7.1140979 L3.35162522,7.1140979 C1.6338855,7.1140979 0.24138233,5.7185893 0.24138233,4.0049464 L0.24138233,0.8957949 Z" id="path-3"></path>
                                </g>
                                <path d="M1.24138233,1.8957949 L13.9072008,1.8957949 L13.9072008,4.0049464 C13.9072008,5.1695449 12.9622232,6.1140979 11.7969579,6.1140979 L3.35162522,6.1140979 C2.18747164,6.1140979 1.24138233,5.1676064 1.24138233,4.0049464 L1.24138233,1.8957949 Z" id="Shape" stroke="#673AB7" stroke-width="2"></path>
                            </g>
                            <g id="Rectangle-Copy-3" transform="translate(52.000000, 37.000000)">
                                <g id="path-4-link" fill="#FFFFFF">
                                    <path d="M0.4138233,0.8957949 L15.0796418,0.8957949 L15.0796418,4.0049464 C15.0796418,5.7220834 13.6866953,7.1140979 11.9693989,7.1140979 L3.5240662,7.1140979 C1.8063265,7.1140979 0.4138233,5.7185893 0.4138233,4.0049464 L0.4138233,0.8957949 Z" id="path-4"></path>
                                </g>
                                <path d="M1.4138233,1.8957949 L14.0796418,1.8957949 L14.0796418,4.0049464 C14.0796418,5.1695449 13.1346642,6.1140979 11.9693989,6.1140979 L3.5240662,6.1140979 C2.3599126,6.1140979 1.4138233,5.1676064 1.4138233,4.0049464 L1.4138233,1.8957949 Z" id="Shape" stroke="#673AB7" stroke-width="2"></path>
                            </g>
                        </g>
                        <polygon id="Path-34" fill="#673AB7" fill-rule="nonzero" opacity="0.0916511194" points="100.125965 44.2218726 107.456942 34.2519685 132.491893 34.4279381"></polygon>
                        <polygon id="Path-2" fill="#673AB7" fill-rule="nonzero" opacity="0.0916511194" points="65.219933 105.11811 61.0918326 117.990379 102.266627 117.91764 98.6241481 105.202334"></polygon>
                    </g>
                    <g id="Group-18-Copy-2" transform="translate(277.000000, 154.000000)">
                        <path d="M16.3882043,73.2673664 C16.3882043,70.6761955 16.266639,29.5039508 16.266639,29.5039508 L64.7372691,30.0418373 L65.6662836,74.3259117 L81.9739439,74.3259117 L81.6892252,22.8183342 L78.0825758,16.7637612 L72.5340812,14.4571661 L62.9777718,14.2574526 L10.1819777,14.1732283 L5.4831603,15.8685598 L1.91937862,19.9125986 L0.990364073,24.7561293 L0.38317757,74.1319408 C0.38317757,74.1319408 16.3882043,75.8585373 16.3882043,73.2673664 Z" id="Path-67"></path>
                        <polyline id="Path-36-Copy" stroke="#673AB7" stroke-width="2" points="15.1688338 73.9781658 15.1688338 29.5275591 64.4060618 29.5275591 64.5947109 73.9781658"></polyline>
                        <path d="M16.3516863,35.7283465 L64.3807106,35.7283465" id="Path-38-Copy-2" stroke="#673AB7" stroke-width="1.5"></path>
                        <path d="M16.3516863,41.6338583 L64.3807106,41.6338583" id="Path-38-Copy-3" stroke="#673AB7" stroke-width="1.5"></path>
                        <path d="M0.404375308,74.8768886 L0.382577355,22.1715941 C0.380750409,17.7542187 3.95809289,14.1732283 8.38015423,14.1732283 L72.9434196,14.1732283 C77.3621863,14.1732283 80.9457812,17.7474359 80.9476124,22.1795376 L80.9694104,74.9371754" id="Path-35-Copy-2" stroke="#673AB7" stroke-width="2"></path>
                        <g id="Group" transform="translate(28.180211, 0.000000)">
                            <g id="Oval-8">
                                <g id="path-5-link" fill="#FFFFFF">
                                    <ellipse id="path-5" cx="12.1242381" cy="12.1062992" rx="12.1242381" ry="12.1062992"></ellipse>
                                </g>
                                <ellipse id="Oval" stroke="#673AB7" stroke-width="1.5" cx="12.1242381" cy="12.1062992" rx="11.3742381" ry="11.3562992"></ellipse>
                            </g>
                            <path d="M17.1760929,14.9038075 C16.2912227,16.4944854 14.7574972,17.5037838 13.0854182,17.7870956 C12.9648213,16.4856319 12.6422432,15.2240089 12.1398797,14.0435429 C11.940118,13.5743077 11.7129816,13.1168772 11.4592103,12.675678 C11.294222,12.389415 11.117396,12.1097921 10.9309517,11.8368094 C9.8507591,11.7172872 8.78980277,11.4612736 7.77841693,11.0768844 C9.67319319,12.8121694 10.8954386,15.1908083 11.174365,17.792998 C10.5395669,17.6889694 9.91216732,17.4772233 9.31880122,17.1489062 C6.78848696,15.750054 5.72309148,12.7243722 6.70414315,10.099311 C7.89605434,10.6474899 9.1538129,11.0001541 10.4308078,11.1573037 C10.9479685,11.2214915 11.4688285,11.2532165 11.9896885,11.2532165 C12.3226246,11.2532165 12.6555607,11.2399363 12.987017,11.2133758 C13.6255145,10.3427821 14.3772102,9.55113215 15.2265671,8.85982177 C12.7561814,9.63819151 10.0549599,9.50317572 7.65782008,8.44739647 C8.39545847,7.54876675 9.38686816,6.89434593 10.5299487,6.56750442 C11.0574675,6.41699501 11.5953442,6.3424781 12.1302615,6.3424781 C13.0979957,6.3424781 14.055372,6.58742478 14.9247051,7.06846466 C15.5661619,7.42260445 16.1225351,7.88667514 16.5760681,8.43337844 C15.5040139,9.18887665 14.5680935,10.1000488 13.7919825,11.1248408 C13.2925784,11.7844262 12.8590216,12.4912302 12.4987108,13.2334482 C12.9293081,14.2508623 13.2296905,15.3272997 13.3843208,16.4361999 C13.940694,13.905576 15.4115316,11.6317034 17.5319646,10.085293 C17.5859742,10.2276867 17.6355447,10.3730316 17.6777166,10.5205898 C18.1031349,12.000599 17.9248291,13.5573385 17.1760929,14.9038075 Z M19.5066455,9.99823363 C18.941394,8.03128222 17.6414635,6.40150139 15.847308,5.40917219 C14.0531524,4.41684299 11.9785906,4.1807498 10.0053894,4.7444223 C8.03292807,5.30809479 6.39858181,6.60365619 5.40347284,8.39279992 C3.34962711,12.0869206 4.69172947,16.7593524 8.39619833,18.8074609 C9.57331237,19.4589305 10.8495674,19.7680651 12.1088056,19.7680651 C14.8122467,19.7673273 17.4380026,18.3433902 18.8400335,15.8238332 C19.8351424,14.0346894 20.071897,11.965185 19.5066455,9.99823363 L19.5066455,9.99823363 Z" id="Fill-12-Copy-5" fill="#673AB7" fill-rule="nonzero"></path>
                        </g>
                        <path d="M3.93916233,74.2600337 L3.93173507,22.8680057 C3.93173507,22.8680057 5.2101528,17.4792147 9.80762891,17.4792147 C14.405105,17.4792147 27.3823912,17.1259843 27.3823912,17.1259843 L31.1935636,22.8680057 L13.1354258,22.8680057 C13.1354258,22.8680057 10.406452,23.0386089 10.406452,27.3919618 C10.406452,31.7453148 10.4138793,73.7937354 10.4138793,73.7937354" id="Path-20" fill="#673AB7" fill-rule="nonzero" opacity="0.0916511194"></path>
                        <g id="Group-3" transform="translate(22.265949, 50.196850)">
                            <polyline id="Path-48" stroke="#673AB7" stroke-width="1.5" fill="#FFFFFF" fill-rule="nonzero" points="5.24138233 10.623688 8.46834309 0 27.9423018 0 31.5887387 10.623688"></polyline>
                            <g id="Rectangle-10" transform="translate(0.000000, 9.000000)">
                                <g id="path-6-link" fill="#FFFFFF">
                                    <path d="M-7.10542736e-15,5.9163331 C-7.10542736e-15,3.091012 2.28674856,0.80063662 5.10577414,0.80063662 L30.7963712,0.80063662 C33.6162124,0.80063662 35.9021454,3.0967609 35.9021454,5.9163331 L35.9021454,10.0323718 C35.9021454,10.5844676 35.4482096,11.0320297 34.9044453,11.0320297 L0.997700114,11.0320297 C0.446685556,11.0320297 -7.10542736e-15,10.5923995 -7.10542736e-15,10.0323718 L-7.10542736e-15,5.9163331 Z" id="path-6"></path>
                                </g>
                                <path d="M0.75,5.9163331 C0.75,3.5052006 2.70098818,1.5506366 5.10577414,1.5506366 L30.7963712,1.5506366 C33.1995618,1.5506366 35.1521454,3.5085334 35.1521454,5.9163331 L35.1521454,10.0323718 C35.1521454,10.1672452 35.0370107,10.2820297 34.9044453,10.2820297 L0.997700114,10.2820297 C0.857557534,10.2820297 0.75,10.1748517 0.75,10.0323718 L0.75,5.9163331 Z" id="Shape" stroke="#673AB7" stroke-width="1.5"></path>
                            </g>
                            <path d="M13.6028037,14.7637795 C13.6028037,14.7637795 15.9891305,15.8131939 18.2418883,15.8131939 C20.494646,15.8131939 22.6583542,14.7637795 22.6583542,14.7637795" id="Path-31" stroke="#673AB7" stroke-linecap="round"></path>
                            <ellipse id="Oval-7" fill="#673AB7" fill-rule="nonzero" cx="6.22414152" cy="15.3546137" rx="1.63793198" ry="1.63372244"></ellipse>
                            <ellipse id="Oval-7-Copy-2" fill="#673AB7" fill-rule="nonzero" cx="29.810362" cy="15.3546137" rx="1.63793198" ry="1.63372244"></ellipse>
                            <g id="Rectangle" transform="translate(2.000000, 18.000000)">
                                <g id="path-7-link" fill="#FFFFFF">
                                    <path d="M0.62069117,0.9478975 L7.9536004,0.9478975 L7.9536004,2.5024732 C7.9536004,3.3610417 7.25049023,4.0570489 6.39847895,4.0570489 L2.17581261,4.0570489 C1.31694275,4.0570489 0.62069117,3.3670275 0.62069117,2.5024732 L0.62069117,0.9478975 Z" id="path-7"></path>
                                </g>
                                <path d="M1.12069117,1.4478975 L7.4536004,1.4478975 L7.4536004,2.5024732 C7.4536004,3.0821581 6.97709565,3.5570489 6.39847895,3.5570489 L2.17581261,3.5570489 C1.59067476,3.5570489 1.12069117,3.0884798 1.12069117,2.5024732 L1.12069117,1.4478975 Z" id="Shape" stroke="#673AB7"></path>
                            </g>
                            <g id="Rectangle-Copy-3" transform="translate(26.000000, 18.000000)">
                                <g id="path-8-link" fill="#FFFFFF">
                                    <path d="M0.2069117,0.9478975 L7.5398209,0.9478975 L7.5398209,2.5024732 C7.5398209,3.3610417 6.8367107,4.0570489 5.9846994,4.0570489 L1.7620331,4.0570489 C0.9031632,4.0570489 0.2069117,3.3670275 0.2069117,2.5024732 L0.2069117,0.9478975 Z" id="path-8"></path>
                                </g>
                                <path d="M0.7069117,1.4478975 L7.0398209,1.4478975 L7.0398209,2.5024732 C7.0398209,3.0821581 6.5633161,3.5570489 5.9846994,3.5570489 L1.7620331,3.5570489 C1.1768952,3.5570489 0.7069117,3.0884798 0.7069117,2.5024732 L0.7069117,1.4478975 Z" id="Shape" stroke="#673AB7"></path>
                            </g>
                        </g>
                        <polygon id="Path-34" fill="#673AB7" fill-rule="nonzero" opacity="0.0916511194" points="50.0629825 22.1109363 53.7284708 17.1259843 66.2459467 17.213969"></polygon>
                        <polygon id="Path-2" fill="#673AB7" fill-rule="nonzero" opacity="0.0916511194" points="32.6099665 52.5590551 30.5459163 58.9951893 51.1333137 58.9588198 49.3120741 52.6011672"></polygon>
                    </g>
                    <g id="Group-9" transform="translate(153.000000, 0.000000)" fill-rule="nonzero">
                        <path d="M0,25.1282051 C0,43.974359 25,71.7948718 25,71.7948718 C25,71.7948718 50,43.974359 50,25.1282051 C50,11.2358974 38.8214286,-2.27373675e-13 25,-2.27373675e-13 C11.1785714,-2.27373675e-13 0,11.2358974 0,25.1282051 Z" id="Path" fill="#673AB7"></path>
                        <polygon id="Icon-Shape-Copy-3" fill="#FFFFFF" points="32.9739567 21 36.7467923 24.7896224 22.0780191 39.5236627 14 31.4097013 17.7918824 27.6277696 22.07857 31.9335303"></polygon>
                    </g>
                    <g id="Group-15" transform="translate(0.000000, 111.000000)">
                        <g id="Group-18-Copy" transform="translate(0.000000, 43.000000)">
                            <path d="M16.3882043,73.2673664 C16.3882043,70.6761955 16.266639,29.5039508 16.266639,29.5039508 L64.7372691,30.0418373 L65.6662836,74.3259117 L81.9739439,74.3259117 L81.6892252,22.8183342 L78.0825758,16.7637612 L72.5340812,14.4571661 L62.9777718,14.2574526 L10.1819777,14.1732283 L5.4831603,15.8685598 L1.91937862,19.9125986 L0.990364073,24.7561293 L0.38317757,74.1319408 C0.38317757,74.1319408 16.3882043,75.8585373 16.3882043,73.2673664 Z" id="Path-67"></path>
                            <polyline id="Path-36-Copy" stroke="#673AB7" stroke-width="3" points="15.1688338 73.9781658 15.1688338 29.5275591 64.4060618 29.5275591 64.5947109 73.9781658"></polyline>
                            <path d="M16.3516863,36 L64.3807106,36" id="Path-38-Copy-2" stroke="#673AB7" stroke-width="2"></path>
                            <path d="M16.3516863,42 L64.3807106,42" id="Path-38-Copy-3" stroke="#673AB7" stroke-width="2"></path>
                            <path d="M0.404375308,74.8768886 L0.382577355,22.1715941 C0.380750409,17.7542187 3.95809289,14.1732283 8.38015423,14.1732283 L72.9434196,14.1732283 C77.3621863,14.1732283 80.9457812,17.7474359 80.9476124,22.1795376 L80.9694104,74.9371754" id="Path-35-Copy-2" stroke="#673AB7" stroke-width="4"></path>
                            <g id="Group" transform="translate(28.180211, 0.000000)">
                                <g id="Oval-8">
                                    <g id="path-9-link" fill="#FFFFFF">
                                        <ellipse id="path-9" cx="12.1242381" cy="12.1062992" rx="12.1242381" ry="12.1062992"></ellipse>
                                    </g>
                                    <ellipse id="Oval" stroke="#673AB7" stroke-width="2" cx="12.1242381" cy="12.1062992" rx="11.1242381" ry="11.1062992"></ellipse>
                                </g>
                                <path d="M17.1760929,14.9038075 C16.2912227,16.4944854 14.7574972,17.5037838 13.0854182,17.7870956 C12.9648213,16.4856319 12.6422432,15.2240089 12.1398797,14.0435429 C11.940118,13.5743077 11.7129816,13.1168772 11.4592103,12.675678 C11.294222,12.389415 11.117396,12.1097921 10.9309517,11.8368094 C9.8507591,11.7172872 8.78980277,11.4612736 7.77841693,11.0768844 C9.67319319,12.8121694 10.8954386,15.1908083 11.174365,17.792998 C10.5395669,17.6889694 9.91216732,17.4772233 9.31880122,17.1489062 C6.78848696,15.750054 5.72309148,12.7243722 6.70414315,10.099311 C7.89605434,10.6474899 9.1538129,11.0001541 10.4308078,11.1573037 C10.9479685,11.2214915 11.4688285,11.2532165 11.9896885,11.2532165 C12.3226246,11.2532165 12.6555607,11.2399363 12.987017,11.2133758 C13.6255145,10.3427821 14.3772102,9.55113215 15.2265671,8.85982177 C12.7561814,9.63819151 10.0549599,9.50317572 7.65782008,8.44739647 C8.39545847,7.54876675 9.38686816,6.89434593 10.5299487,6.56750442 C11.0574675,6.41699501 11.5953442,6.3424781 12.1302615,6.3424781 C13.0979957,6.3424781 14.055372,6.58742478 14.9247051,7.06846466 C15.5661619,7.42260445 16.1225351,7.88667514 16.5760681,8.43337844 C15.5040139,9.18887665 14.5680935,10.1000488 13.7919825,11.1248408 C13.2925784,11.7844262 12.8590216,12.4912302 12.4987108,13.2334482 C12.9293081,14.2508623 13.2296905,15.3272997 13.3843208,16.4361999 C13.940694,13.905576 15.4115316,11.6317034 17.5319646,10.085293 C17.5859742,10.2276867 17.6355447,10.3730316 17.6777166,10.5205898 C18.1031349,12.000599 17.9248291,13.5573385 17.1760929,14.9038075 Z M19.5066455,9.99823363 C18.941394,8.03128222 17.6414635,6.40150139 15.847308,5.40917219 C14.0531524,4.41684299 11.9785906,4.1807498 10.0053894,4.7444223 C8.03292807,5.30809479 6.39858181,6.60365619 5.40347284,8.39279992 C3.34962711,12.0869206 4.69172947,16.7593524 8.39619833,18.8074609 C9.57331237,19.4589305 10.8495674,19.7680651 12.1088056,19.7680651 C14.8122467,19.7673273 17.4380026,18.3433902 18.8400335,15.8238332 C19.8351424,14.0346894 20.071897,11.965185 19.5066455,9.99823363 L19.5066455,9.99823363 Z" id="Fill-12-Copy-5" fill="#673AB7" fill-rule="nonzero"></path>
                            </g>
                            <path d="M3.93916233,74.2600337 L3.93173507,22.8680057 C3.93173507,22.8680057 5.2101528,17.4792147 9.80762891,17.4792147 C14.405105,17.4792147 27.3823912,17.1259843 27.3823912,17.1259843 L31.1935636,22.8680057 L13.1354258,22.8680057 C13.1354258,22.8680057 10.406452,23.0386089 10.406452,27.3919618 C10.406452,31.7453148 10.4138793,73.7937354 10.4138793,73.7937354" id="Path-20" fill="#673AB7" fill-rule="nonzero" opacity="0.0916511194"></path>
                            <g id="Group-3" transform="translate(22.265949, 50.196850)">
                                <polyline id="Path-48" stroke="#673AB7" stroke-width="2" fill="#FFFFFF" fill-rule="nonzero" points="5.24138233 10.623688 8.46834309 0 27.9423018 0 31.5887387 10.623688"></polyline>
                                <g id="Rectangle-10" transform="translate(0.000000, 9.000000)">
                                    <g id="path-10-link" fill="#FFFFFF">
                                        <path d="M-7.10542736e-15,5.9163331 C-7.10542736e-15,3.091012 2.28674856,0.80063662 5.10577414,0.80063662 L30.7963712,0.80063662 C33.6162124,0.80063662 35.9021454,3.0967609 35.9021454,5.9163331 L35.9021454,10.0323718 C35.9021454,10.5844676 35.4482096,11.0320297 34.9044453,11.0320297 L0.997700114,11.0320297 C0.446685556,11.0320297 -7.10542736e-15,10.5923995 -7.10542736e-15,10.0323718 L-7.10542736e-15,5.9163331 Z" id="path-10"></path>
                                    </g>
                                    <path d="M0.997700114,10.0320297 C0.995431246,10.0320297 1,10.0365823 1,10.0323718 L0.997700114,10.0320297 Z M34.9021339,10.03203 C34.9021339,10.0320299 34.9021339,10.0320298 34.9021339,10.0320297 C34.9019774,10.0298071 34.9002985,10.0310996 34.9021454,10.0317378 C34.902634,10.0319066 34.9033695,10.0320297 34.9044453,10.0320297 L34.9021339,10.0320297 L34.9021339,10.0320297 L1,10.0320297 L1,5.9163331 C1,3.6431694 2.83916195,1.8006366 5.10577414,1.8006366 L30.7963712,1.8006366 C33.0613383,1.8006366 34.9021454,3.6464527 34.9021454,5.9163331 L34.9021454,10.0317378 L34.9021454,10.0320297 C34.9021454,10.0322496 34.9021414,10.0321358 34.9021339,10.03203 Z" id="Shape" stroke="#673AB7" stroke-width="2"></path>
                                </g>
                                <path d="M13.6028037,14.7637795 C13.6028037,14.7637795 15.9891305,15.8131939 18.2418883,15.8131939 C20.494646,15.8131939 22.6583542,14.7637795 22.6583542,14.7637795" id="Path-31" stroke="#673AB7" stroke-linecap="round"></path>
                                <ellipse id="Oval-7" fill="#673AB7" fill-rule="nonzero" cx="6.22414152" cy="15.3546137" rx="1.63793198" ry="1.63372244"></ellipse>
                                <ellipse id="Oval-7-Copy-2" fill="#673AB7" fill-rule="nonzero" cx="29.810362" cy="15.3546137" rx="1.63793198" ry="1.63372244"></ellipse>
                                <g id="Rectangle" transform="translate(2.000000, 18.000000)">
                                    <g id="path-11-link" fill="#FFFFFF">
                                        <path d="M0.62069117,0.9478975 L7.9536004,0.9478975 L7.9536004,2.5024732 C7.9536004,3.3610417 7.25049023,4.0570489 6.39847895,4.0570489 L2.17581261,4.0570489 C1.31694275,4.0570489 0.62069117,3.3670275 0.62069117,2.5024732 L0.62069117,0.9478975 Z" id="path-11"></path>
                                    </g>
                                    <path d="M1.12069117,1.4478975 L7.4536004,1.4478975 L7.4536004,2.5024732 C7.4536004,3.0821581 6.97709565,3.5570489 6.39847895,3.5570489 L2.17581261,3.5570489 C1.59067476,3.5570489 1.12069117,3.0884798 1.12069117,2.5024732 L1.12069117,1.4478975 Z" id="Shape" stroke="#673AB7"></path>
                                </g>
                                <g id="Rectangle-Copy-3" transform="translate(26.000000, 18.000000)">
                                    <g id="path-12-link" fill="#FFFFFF">
                                        <path d="M0.2069117,0.9478975 L7.5398209,0.9478975 L7.5398209,2.5024732 C7.5398209,3.3610417 6.8367107,4.0570489 5.9846994,4.0570489 L1.7620331,4.0570489 C0.9031632,4.0570489 0.2069117,3.3670275 0.2069117,2.5024732 L0.2069117,0.9478975 Z" id="path-12"></path>
                                    </g>
                                    <path d="M0.7069117,1.4478975 L7.0398209,1.4478975 L7.0398209,2.5024732 C7.0398209,3.0821581 6.5633161,3.5570489 5.9846994,3.5570489 L1.7620331,3.5570489 C1.1768952,3.5570489 0.7069117,3.0884798 0.7069117,2.5024732 L0.7069117,1.4478975 Z" id="Shape" stroke="#673AB7"></path>
                                </g>
                            </g>
                            <polygon id="Path-34" fill="#673AB7" fill-rule="nonzero" opacity="0.0916511194" points="50.0629825 22.1109363 53.7284708 17.1259843 66.2459467 17.213969"></polygon>
                            <polygon id="Path-2" fill="#673AB7" fill-rule="nonzero" opacity="0.0916511194" points="32.6099665 52.5590551 30.5459163 58.9951893 51.1333137 58.9588198 49.3120741 52.6011672"></polygon>
                        </g>
                        <g id="Group-9-Copy-2" transform="translate(27.000000, 0.000000)" fill-rule="nonzero">
                            <path d="M0,13.2621083 C0,23.2086895 13,37.8917379 13,37.8917379 C13,37.8917379 26,23.2086895 26,13.2621083 C26,5.93005698 20.1871429,-1.20792265e-13 13,-1.20792265e-13 C5.81285714,-1.20792265e-13 0,5.93005698 0,13.2621083 Z" id="Path" fill="#673AB7"></path>
                            <polygon id="Icon-Shape-Copy-3" fill="#FFFFFF" points="17.1464575 11.0833333 19.108332 13.0834118 11.4805699 20.8597108 7.28 16.5773424 9.25177884 14.5813229 11.4808564 16.8538077"></polygon>
                        </g>
                    </g>
                    <g id="Group-9-Copy-3" transform="translate(305.000000, 111.000000)" fill-rule="nonzero">
                        <path d="M0,13.2621083 C0,23.2086895 13,37.8917379 13,37.8917379 C13,37.8917379 26,23.2086895 26,13.2621083 C26,5.93005698 20.1871429,-1.20792265e-13 13,-1.20792265e-13 C5.81285714,-1.20792265e-13 0,5.93005698 0,13.2621083 Z" id="Path" fill="#673AB7"></path>
                        <polygon id="Icon-Shape-Copy-3" fill="#FFFFFF" points="17.1464575 11.0833333 19.108332 13.0834118 11.4805699 20.8597108 7.28 16.5773424 9.25177884 14.5813229 11.4808564 16.8538077"></polygon>
                    </g>
                </g>
                <g id="cardash-man" transform="translate(0.000000, 76.000000)">
                    <g id="torso+legs" transform="translate(0.000000, 54.800000)">
                        <path d="M8.62059383,118.476915 C6.56928324,117.963261 5.43157895,117.396134 5.43157895,116.8 C5.43157895,114.480404 22.6568341,112.6 43.9052632,112.6 C65.1536922,112.6 82.3789474,114.480404 82.3789474,116.8 C82.3789474,117.457364 80.9955328,118.079454 78.5291883,118.63347 C83.2432122,119.307358 86,120.122234 86,121 C86,123.319596 66.7482442,125.2 43,125.2 C19.2517558,125.2 0,123.319596 0,121 C0,120.053106 3.20810622,119.179398 8.62059383,118.476915 Z" id="shadow" fill="#673AB7" fill-rule="nonzero" opacity="0.158057369" transform="translate(43.000000, 118.900000) scale(-1, 1) rotate(-180.000000) translate(-43.000000, -118.900000) "></path>
                        <polygon id="Rectangle-4" stroke="#673AB7" stroke-width="3.6" fill="#FFFFFF" fill-rule="nonzero" stroke-linecap="round" points="21.7263158 49.3464355 64.2736842 49.3464355 64.2736842 106.96665 21.7263158 106.96665"></polygon>
                        <path d="M12.4341077,42.3525391 C10.001655,38.6501465 9.08224712,24.0835937 9.08224712,24.0835937 C7.85740132,8.88334961 20.0361761,1.9 36.6467669,1.9 L48.9000488,1.9 C65.5149199,1.9 78.9780222,7.98642578 75.1191612,26.7755641 C71.2603002,45.5647025 68.6736864,50.648573 64.7281944,50.648573 C60.7827024,50.648573 32.7353413,43.2549159 32.7353413,43.2549159" id="Rectangle-2" stroke="#673AB7" stroke-width="3.6" fill="#FFFFFF" fill-rule="nonzero" stroke-linecap="round"></path>
                        <rect id="Rectangle-13" fill="#673AB7" fill-rule="nonzero" opacity="0.0916511194" x="25.3473684" y="75.7" width="5.43157895" height="30.6"></rect>
                        <polygon id="Path-89" fill="#673AB7" fill-rule="nonzero" opacity="0.0916511194" points="45.2631579 84.7 45.336239 104.905469 49.2949973 104.905469 48.84767 89.8931641"></polygon>
                        <path d="M61.0217366,38.9717449 L62.1961918,40.3898602 L61.969876,70.8391277 L58.2789837,70.785075 C58.2789837,70.785075 59.1379632,60.5496602 59.4205482,49.3929363 C59.7031331,38.2362125 56.2092692,39.2081802 56.2169463,38.9717449 C56.3137879,35.9892744 55.9712142,31.8680746 56.2169463,30.5984051 C56.8968365,27.0854901 59.398628,36.3029461 59.398628,36.3029461 L61.0217366,38.9717449 Z" id="Path-90" fill="#FFFFFF" fill-rule="nonzero"></path>
                        <rect id="Rectangle-21-Copy-4" fill="#673AB7" fill-rule="nonzero" x="28.0631579" y="3.7" width="1.81052632" height="17.1"></rect>
                        <rect id="Rectangle-21-Copy-5" fill="#673AB7" fill-rule="nonzero" x="30.7789474" y="3.7" width="1.81052632" height="17.1"></rect>
                        <rect id="Rectangle-21-Copy-6" fill="#673AB7" fill-rule="nonzero" x="53.4105263" y="3.7" width="1.81052632" height="17.1"></rect>
                        <rect id="Rectangle-21-Copy-7" fill="#673AB7" fill-rule="nonzero" x="56.1263158" y="3.7" width="1.81052632" height="17.1"></rect>
                        <g id="Path-106-Copy" transform="translate(22.000000, 20.000000)">
                            <g id="path-13-link" transform="translate(1.000000, 1.000000)" fill="#F1EDF9">
                                <polygon id="path-13" points="39.5374178 84.381104 0.7516653 84.189062 0.5368421 23.9400391 6.4931024 16.9052734 6.6314556 0.7 33.4255654 1.1130859 33.3924137 16.4842773 38.9327303 21.4883301"></polygon>
                            </g>
                            <polygon id="Shape" stroke="#673AB7" stroke-width="1.8" points="35.2932765 17.0851841 35.3255633 2.115027 35.3274788 1.2268838 34.4394391 1.2131929 7.6453293 0.8001069 6.7392249 0.7861375 6.7314884 1.6923165 6.5959139 17.5721165 0.8499758 24.3584768 0.6356653 24.6115927 0.6368478 24.9432481 0.851671 85.192272 0.8548528 86.084633 1.7472092 86.089051 40.5329616 86.281092 41.4461558 86.285614 41.4373762 85.372451 40.8326887 22.4796774 40.8288939 22.0849925 40.535981 21.8204315"></polygon>
                        </g>
                        <polygon id="Path-89" fill="#673AB7" fill-rule="nonzero" opacity="0.0916511194" points="45.2631579 85.6 45.336239 104.201423 49.2949973 104.201423 48.84767 90.3808958"></polygon>
                        <path d="M32.3432664,73.4255892 L32.3432664,75.3267411 L32.3432664,104.005469 L26.9116874,104.005469 C26.9116874,104.005469 26.2526311,80.7395599 26.2526311,71.4478311 C26.2526311,67.1657931 26.9116874,70.0841583 29.283362,71.4478311 C31.6550365,72.811504 32.3432664,73.4255892 32.3432664,73.4255892 Z" id="Rectangle-13" fill="#673AB7" fill-rule="nonzero" opacity="0.0916511194" transform="translate(29.297949, 86.604757) scale(-1, 1) translate(-29.297949, -86.604757) "></path>
                        <g id="feet" transform="translate(15.389474, 105.400000)">
                            <g id="Rectangle-6">
                                <g id="path-14-link" fill="#FFFFFF">
                                    <path d="M0,7.2 C0,3.72060608 2.82177686,0.9 6.30214078,0.9 L49.824175,0.9 C53.3047513,0.9 56.1263158,3.72768594 56.1263158,7.2 L56.1263158,13.5 L0,13.5 L0,7.2 Z" id="path-14"></path>
                                </g>
                                <path d="M54.7763158,12.15 L1.35,12.15 L1.35,7.2 C1.35,4.46637352 3.56717826,2.25 6.30214078,2.25 L49.824175,2.25 C52.5565909,2.25 54.7763158,4.47069338 54.7763158,7.2 L54.7763158,12.15 Z" id="Shape" stroke="#673AB7" stroke-width="2.7"></path>
                            </g>
                            <rect id="Rectangle-16" fill="#673AB7" fill-rule="nonzero" opacity="0.0916511194" x="2.71578947" y="8.1" width="24.4421053" height="2.7"></rect>
                            <rect id="Rectangle-16-Copy" fill="#673AB7" fill-rule="nonzero" opacity="0.0916511194" x="28.0631579" y="8.1" width="24.4421053" height="2.7"></rect>
                            <path d="M26,0.862564879 L26,11.7" id="Path-81-Copy" stroke="#673AB7" stroke-width="1.8" fill="#FFFFFF" fill-rule="nonzero" stroke-linecap="round" transform="translate(26.900000, 6.281282) scale(-1, 1) translate(-26.900000, -6.281282) "></path>
                        </g>
                        <path d="M41,86.5 L41,105.4" id="Path-81-Copy-3" stroke="#673AB7" stroke-width="1.8" fill="#FFFFFF" fill-rule="nonzero" stroke-linecap="round" transform="translate(41.900000, 95.950000) scale(-1, 1) translate(-41.900000, -95.950000) "></path>
                        <path d="M26.2526316,66.0399414 C26.2526316,66.0399414 32.9643092,63.7205078 32.9643092,57.7" id="Path-101-Copy-2" stroke="#673AB7" stroke-width="1.8" stroke-linecap="round"></path>
                        <path d="M52.5052632,66.0399414 C52.5052632,66.0399414 59.2169408,63.7205078 59.2169408,57.7" id="Path-101-Copy-3" stroke="#673AB7" stroke-width="1.8" stroke-linecap="round" transform="translate(55.861102, 61.869971) scale(-1, 1) translate(-55.861102, -61.869971) "></path>
                        <path d="M11.8099712,41.021875 C11.8099712,41.021875 12.7870902,47.4496717 16.0003495,49.159668 C19.2136088,50.8696643 24.8740762,50.0471492 32.1174379,49.159668 C32.3540115,49.1306822 52.1829512,45.6245695 52.4142064,45.5948242 C52.6454616,45.5650789 49.0508532,43.5276367 49.0508532,43.5276367 L52.4142064,38.8303223 C52.4142064,38.8303223 43.8504679,35.7894775 33.4434622,36.0833008 C23.0364564,36.3771241 24.6215666,32.2556641 24.6215666,32.2556641" id="Path-113" stroke="#673AB7" stroke-width="3.6" fill="#FFFFFF" fill-rule="nonzero" stroke-linecap="round"></path>
                        <path d="M18.6119388,2.29851055 C18.7317536,2.19895234 18.8830012,2.14435537 19.0392509,2.14426053 C19.4280498,2.14588563 19.7428281,2.45836222 19.7444651,2.84431831 L19.7444651,5.81066481 C19.7444651,6.82802919 20.5752768,7.65276598 21.6001349,7.65276598 L23.8651876,7.65276598 C24.3573418,7.65276598 24.8293387,7.45868802 25.1773443,7.11322704 C25.5253499,6.76776606 25.7208574,6.29922041 25.7208574,5.81066481 L25.7208574,2.84431831 C25.7224944,2.45836222 26.0372727,2.14588563 26.4260716,2.14426053 C26.5823213,2.14435537 26.7335689,2.19895234 26.8533837,2.29851055 C28.3344516,3.50487346 29.201364,5.30035503 29.2209711,7.20207361 C29.2405781,9.10379219 28.410867,10.9165114 26.9549824,12.1527136 C26.096883,12.8786068 25.6012868,13.9405736 25.5983413,15.0597332 L25.4803024,34.7562668 C25.4803024,35.288879 25.2671646,35.7996767 24.8877768,36.1762904 C24.5083891,36.552904 23.9938289,36.7644834 23.4572936,36.7644834 L21.771951,36.7644834 C20.6546741,36.7644834 19.7489422,35.8653742 19.7489422,34.7562668 L19.8669812,15.0626996 C19.8640357,13.94354 19.3684395,12.8815732 18.5103402,12.15568 C17.0706949,10.9352606 16.2427398,9.14941489 16.2452875,7.27010728 C16.2430233,5.34440695 17.1117774,3.51942544 18.6119388,2.29851055 Z" id="Path-Copy-2" stroke="#673AB7" stroke-width="2.7" fill="#F1EDF9" fill-rule="nonzero" transform="translate(22.733296, 19.454372) rotate(-23.000000) translate(-22.733296, -19.454372) "></path>
                        <g id="Rectangle-11-Copy" transform="translate(28.892787, 36.006076) rotate(-69.000000) translate(-28.892787, -36.006076) translate(20.892787, 28.006076)">
                            <g id="path-15-link" fill="#FFFFFF">
                                <path d="M14.7884701,5.4780564 C14.1676788,0.3221385 10.0781869,0.0019175 6.1528018,0.7112255 C5.9074068,0.7555678 5.6609837,0.7923977 5.4336994,0.8737418 C0.3415786,2.6961895 -0.2388737,4.9191991 0.5444096,8.0519252 L1.2385389,10.8280816 C2.0744981,14.1714839 5.9488222,16.3042205 9.8742072,15.5949125 C13.8075959,14.8841583 16.3180015,11.595387 15.4825994,8.2542129 L14.7884701,5.4780564 Z" id="path-15"></path>
                            </g>
                            <path d="M13.4481505,5.6394358 L13.4787878,5.8055196 L14.1729171,8.5816761 C14.8063548,11.1150977 12.8421214,13.6867545 9.6341529,14.266427 C6.3686574,14.8564944 3.2004372,13.1091433 2.5482213,10.5006185 L1.854092,7.724462 C1.1373174,4.8577364 1.8813149,3.5789805 5.888602,2.1447901 C5.9551192,2.1209838 6.0448975,2.1012378 6.280972,2.0596023 C6.315611,2.0534948 6.315611,2.0534948 6.3519637,2.0470432 C6.3721589,2.0434399 6.3721589,2.0434399 6.3928561,2.0397111 C10.7884569,1.2454362 13.0268367,2.1402583 13.4481505,5.6394358 Z" id="Shape" stroke="#673AB7" stroke-width="2.7"></path>
                        </g>
                        <g id="Rectangle-11-Copy-2" transform="translate(52.778895, 34.528938) rotate(154.000000) translate(-52.778895, -34.528938) translate(44.778895, 26.528938)">
                            <g id="path-16-link" fill="#FFFFFF">
                                <path d="M14.78148,5.1359666 C14.1606886,-0.0199513 10.0711967,-0.3401723 6.1458117,0.3691357 C5.9004167,0.413478 5.6539936,0.4503079 5.4267092,0.531652 C0.3345885,2.3540997 -0.2458638,4.5771093 0.5374195,7.7098353 L1.2315488,10.4859918 C2.067508,13.829394 5.941832,15.9621307 9.8672171,15.2528227 C13.8006058,14.5420685 16.3110114,11.2532972 15.4756093,7.9121231 L14.78148,5.1359666 Z" id="path-16"></path>
                            </g>
                            <path d="M13.4411604,5.297346 L13.4717976,5.4634297 L14.1659269,8.2395862 C14.7993647,10.7730078 12.8351313,13.3446647 9.6271628,13.9243371 C6.3616673,14.5144046 3.1934471,12.7670534 2.5412311,10.1585286 L1.8471018,7.3823722 C1.1303273,4.5156465 1.8743248,3.2368907 5.8816118,1.8027002 C5.948129,1.778894 6.0379074,1.759148 6.2739818,1.7175125 C6.3086208,1.711405 6.3086208,1.711405 6.3449736,1.7049534 C6.3651688,1.7013501 6.3651688,1.7013501 6.385866,1.6976213 C10.7814668,0.9033464 13.0198466,1.7981685 13.4411604,5.297346 Z" id="Shape" stroke="#673AB7" stroke-width="2.7"></path>
                        </g>
                        <polyline id="Path-112" stroke="#673AB7" stroke-width="3.6" fill="#FFFFFF" fill-rule="nonzero" stroke-linecap="round" points="59.4307694 29.1746582 57.5651007 33.428125 32.8701583 29.1746582 30.4589227 44.2162598 65.4234492 50.8229353"></polyline>
                        <polygon id="Path-114" fill="#FFFFFF" fill-rule="nonzero" points="60.7536338 31.6017578 59.8563271 33.5469971 63.6731959 46.5431641 64.4009868 46.2931152 64.3315892 38.8265869"></polygon>
                    </g>
                    <g id="head-+-neck" transform="translate(23.536842, 0.000000)">
                        <ellipse id="Oval-5" stroke="#673AB7" stroke-width="1.8" fill="#FFFFFF" fill-rule="nonzero" stroke-linecap="round" cx="18.8141013" cy="52.2891892" rx="7.04568024" ry="10.8891892"></ellipse>
                        <rect id="Rectangle-5" stroke="#673AB7" stroke-width="3.6" fill="#FFFFFF" fill-rule="nonzero" stroke-linecap="round" x="0.905263158" y="8.1" width="37.6623635" height="48.9657658" rx="18.8311817"></rect>
                        <path d="M12.6736842,42.3 C12.6736842,42.3 14.5771884,45.6686322 19.6363796,45.6686322 C24.6955709,45.6686322 26.5990751,42.3 26.5990751,42.3" id="Path-31" stroke="#673AB7" stroke-width="2.7" stroke-linecap="round"></path>
                        <ellipse id="Oval-13-Copy" fill="#673AB7" fill-rule="nonzero" cx="26.8068106" cy="32.1105654" rx="2.36470533" ry="2.41056536"></ellipse>
                        <ellipse id="Oval-13-Copy-2" fill="#673AB7" fill-rule="nonzero" cx="12.3226001" cy="32.1105654" rx="2.36470533" ry="2.41056536"></ellipse>
                        <path d="M35.5581765,17.5697754 C39.1133685,18.1387916 42.3089531,4.50953221 42.3089531,4.50953221 C42.3089531,4.50953221 38.933522,3.60878906 35.5581765,3.60878906 C32.1845376,3.60878906 28.8109843,4.50953221 28.8109843,4.50953221 C26.4931877,4.50953221 30.3271233,0 30.3271233,0 C30.3271233,0 23.8404113,1.07290269 19.0053062,4.50953221 C14.1702012,7.94616174 15.0883046,1.07290269 15.0883046,1.07290269 C15.0883046,1.07290269 8.54102588,3.21243309 4.46053053,8.39179687 C0.380035171,13.5711607 -0.636702318,19.8872073 0.350011064,24.8871094" id="Path-58-Copy" stroke="#673AB7" stroke-width="3.6" fill="#F1EDF9" fill-rule="nonzero" stroke-linecap="round"></path>
                        <path d="M16.6512664,37.0843128 C16.6512664,37.0843128 15.504514,38.7182972 17.3242746,40.0046253 C19.1440351,41.2909534 21.5127562,40.2015003 21.5127562,40.2015003 C21.5127562,40.2015003 18.6730475,39.2112659 18.6730475,38.7667347 C18.6730475,38.3222034 17.3502655,37.0616565 18.7963077,35.5272815 C20.2423498,33.9929065 16.6512664,37.0843128 16.6512664,37.0843128 Z" id="Path-79" fill="#673AB7" fill-rule="nonzero" opacity="0.0739272388"></path>
                        <path d="M1.81052632,28.7414063 L5.85842585,19.4789063 C5.85842585,19.4789063 26.9660567,26.9358398 35.7746916,18.9" id="Path-92" stroke="#673AB7" stroke-width="1.8"></path>
                        <path d="M36.531435,15.2762695 C36.531435,15.2762695 36.7829461,17.0490234 34.3756887,18.7501465 C31.9684313,20.4512695 28.717794,21.0933105 28.717794,21.0933105 L24.6074219,21.4848633 L18.0522204,21.2387695 L23.1403475,18.2069824 C23.1403475,18.2069824 31.6422183,18.3194824 32.2588405,17.8734375 C32.8754626,17.4273926 34.8048931,15.0086426 34.8048931,15.0086426 L36.531435,15.2762695 Z" id="Path-6" fill="#F1EDF9" fill-rule="nonzero"></path>
                    </g>
                </g>
            </g>
            <g id="Group-2" transform="translate(585.000000, 0.000000)">
                <g id="Group-18" transform="translate(99.000000, 80.000000)">
                    <path d="M32.7764086,146.534733 C32.7764086,141.352391 32.5332781,59.0079015 32.5332781,59.0079015 L129.474538,60.0836745 L131.332567,148.651823 L163.947888,148.651823 L163.37845,45.6366684 L156.165152,33.5275224 L145.068162,28.9143321 L125.955544,28.5149051 L20.3639553,28.3464567 L10.9663206,31.7371196 L3.83875723,39.8251971 L1.98072815,49.5122586 L0.76635514,148.263882 C0.76635514,148.263882 32.7764086,151.717075 32.7764086,146.534733 Z" id="Path-67"></path>
                    <polyline id="Path-36-Copy" stroke="#673AB7" stroke-width="4" points="30.3376676 147.956332 30.3376676 59.0551181 128.812124 59.0551181 129.189422 147.956332"></polyline>
                    <path d="M32.7033726,71.4566929 L128.761421,71.4566929" id="Path-38-Copy-2" stroke="#673AB7" stroke-width="3"></path>
                    <path d="M32.7033726,83.2677165 L128.761421,83.2677165" id="Path-38-Copy-3" stroke="#673AB7" stroke-width="3"></path>
                    <path d="M0.808750616,149.753777 L0.76515471,44.3431883 C0.761500818,35.5084374 7.91618578,28.3464567 16.7603085,28.3464567 L145.886839,28.3464567 C154.724373,28.3464567 161.891572,35.5172671 161.895218,44.3434333 L161.938821,149.874351" id="Path-35-Copy-2" stroke="#673AB7" stroke-width="4"></path>
                    <g id="Group" transform="translate(56.360423, 0.000000)">
                        <g id="Oval-8">
                            <g id="path-17-link" fill="#FFFFFF">
                                <ellipse id="path-17" cx="24.2484762" cy="24.2125984" rx="24.2484762" ry="24.2125984"></ellipse>
                            </g>
                            <ellipse id="Oval" stroke="#673AB7" stroke-width="3" cx="24.2484762" cy="24.2125984" rx="22.7484762" ry="22.7125984"></ellipse>
                        </g>
                        <path d="M34.3521858,29.807615 C32.5824455,32.9889708 29.5149943,35.0075676 26.1708363,35.5741913 C25.9296426,32.9712638 25.2844865,30.4480178 24.2797593,28.0870859 C23.880236,27.1486154 23.4259632,26.2337543 22.9184207,25.351356 C22.588444,24.77883 22.2347919,24.2195843 21.8619035,23.6736187 C19.7015182,23.4345744 17.5796055,22.9225473 15.5568339,22.1537688 C19.3463864,25.6243387 21.7908771,30.3816166 22.34873,35.5859959 C21.0791338,35.3779388 19.8243346,34.9544466 18.6376024,34.2978124 C13.5769739,31.5001081 11.446183,25.4487444 13.4082863,20.1986221 C15.7921087,21.2949798 18.3076258,22.0003082 20.8616155,22.3146073 C21.895937,22.442983 22.937657,22.506433 23.979377,22.506433 C24.6452492,22.506433 25.3111214,22.4798725 25.9740341,22.4267516 C27.251029,20.6855643 28.7544203,19.1022643 30.4531343,17.7196435 C25.5123627,19.276383 20.1099198,19.0063514 15.3156402,16.8947929 C16.7909169,15.0975335 18.7737363,13.7886919 21.0598974,13.1350088 C22.1149349,12.83399 23.1906884,12.6849562 24.260523,12.6849562 C26.1959915,12.6849562 28.1107439,13.1748496 29.8494101,14.1369293 C31.1323239,14.8452089 32.2450703,15.7733503 33.1521361,16.8667569 C31.0080277,18.3777533 29.1361871,20.2000976 27.583965,22.2496817 C26.5851568,23.5688524 25.7180432,24.9824604 24.9974216,26.4668963 C25.8586162,28.5017245 26.4593809,30.6545993 26.7686416,32.8723998 C27.8813879,27.811152 30.8230632,23.2634068 35.0639291,20.170586 C35.1719484,20.4553734 35.2710894,20.7460631 35.3554332,21.0411796 C36.2062698,24.001198 35.8496583,27.114677 34.3521858,29.807615 Z M39.013291,19.9964673 C37.882788,16.0625644 35.2829271,12.8030028 31.6946159,10.8183444 C28.1063048,8.83368598 23.9571813,8.36149959 20.0107788,9.48884459 C16.0658561,10.6161896 12.7971636,13.2073124 10.8069457,16.7855998 C6.69925422,24.1738412 9.38345894,33.5187049 16.7923967,37.6149218 C19.1466247,38.9178611 21.6991347,39.5361301 24.2176113,39.5361301 C29.6244933,39.5346546 34.8760052,36.6867804 37.6800669,31.6476663 C39.6702849,28.0693789 40.143794,23.9303701 39.013291,19.9964673 L39.013291,19.9964673 Z" id="Fill-12-Copy-5" fill="#673AB7" fill-rule="nonzero"></path>
                    </g>
                    <path d="M7.87832466,148.520067 L7.86347013,45.7360113 C7.86347013,45.7360113 10.4203056,34.9584293 19.6152578,34.9584293 C28.81021,34.9584293 54.7647824,34.2519685 54.7647824,34.2519685 L62.3871272,45.7360113 L26.2708516,45.7360113 C26.2708516,45.7360113 20.8129041,46.0772177 20.8129041,54.7839236 C20.8129041,63.4906295 20.8277586,147.587471 20.8277586,147.587471" id="Path-20" fill="#673AB7" fill-rule="nonzero" opacity="0.0916511194"></path>
                    <g id="Group-3" transform="translate(44.531898, 100.393701)">
                        <polyline id="Path-48" stroke="#673AB7" stroke-width="3" fill="#FFFFFF" fill-rule="nonzero" points="10.4827647 21.247376 16.9366862 0 55.8846037 0 63.1774774 21.247376"></polyline>
                        <g id="Rectangle-10" transform="translate(0.000000, 19.000000)">
                            <g id="path-18-link" fill="#FFFFFF">
                                <path d="M-1.42108547e-14,10.8326663 C-1.42108547e-14,5.1820239 4.57349711,0.6012732 10.230592,0.6012732 L61.5736987,0.6012732 C67.2238987,0.6012732 71.8042908,5.1807815 71.8042908,10.8326663 L71.8042908,19.0647436 C71.8042908,20.1689352 70.9094165,21.0640593 69.8088905,21.0640593 L1.99540023,21.0640593 C0.893371112,21.0640593 -1.42108547e-14,20.1716411 -1.42108547e-14,19.0647436 L-1.42108547e-14,10.8326663 Z" id="path-18"></path>
                            </g>
                            <path d="M1.5,10.8326663 C1.5,6.0078859 5.40448826,2.1012732 10.230592,2.1012732 L61.5736987,2.1012732 C66.3959025,2.1012732 70.3042908,6.0096396 70.3042908,10.8326663 L70.3042908,19.0647436 C70.3042908,19.3404713 70.0810246,19.5640593 69.8088905,19.5640593 L1.99540023,19.5640593 C1.72120901,19.5640593 1.5,19.3426234 1.5,19.0647436 L1.5,10.8326663 Z" id="Shape" stroke="#673AB7" stroke-width="3"></path>
                        </g>
                        <path d="M27.2056075,29.5275591 C27.2056075,29.5275591 31.978261,31.6263878 36.4837765,31.6263878 C40.989292,31.6263878 45.3167083,29.5275591 45.3167083,29.5275591" id="Path-31" stroke="#673AB7" stroke-width="2" stroke-linecap="round"></path>
                        <ellipse id="Oval-7" fill="#673AB7" fill-rule="nonzero" cx="12.448283" cy="30.7092274" rx="3.27586396" ry="3.26744487"></ellipse>
                        <ellipse id="Oval-7-Copy-2" fill="#673AB7" fill-rule="nonzero" cx="59.620724" cy="30.7092274" rx="3.27586396" ry="3.26744487"></ellipse>
                        <g id="Rectangle" transform="translate(5.000000, 37.000000)">
                            <g id="path-19-link" fill="#FFFFFF">
                                <path d="M0.24138233,0.8957949 L14.9072008,0.8957949 L14.9072008,4.0049464 C14.9072008,5.7220834 13.5142543,7.1140979 11.7969579,7.1140979 L3.35162522,7.1140979 C1.6338855,7.1140979 0.24138233,5.7185893 0.24138233,4.0049464 L0.24138233,0.8957949 Z" id="path-19"></path>
                            </g>
                            <path d="M1.24138233,1.8957949 L13.9072008,1.8957949 L13.9072008,4.0049464 C13.9072008,5.1695449 12.9622232,6.1140979 11.7969579,6.1140979 L3.35162522,6.1140979 C2.18747164,6.1140979 1.24138233,5.1676064 1.24138233,4.0049464 L1.24138233,1.8957949 Z" id="Shape" stroke="#673AB7" stroke-width="2"></path>
                        </g>
                        <g id="Rectangle-Copy-3" transform="translate(52.000000, 37.000000)">
                            <g id="path-20-link" fill="#FFFFFF">
                                <path d="M0.4138233,0.8957949 L15.0796418,0.8957949 L15.0796418,4.0049464 C15.0796418,5.7220834 13.6866953,7.1140979 11.9693989,7.1140979 L3.5240662,7.1140979 C1.8063265,7.1140979 0.4138233,5.7185893 0.4138233,4.0049464 L0.4138233,0.8957949 Z" id="path-20"></path>
                            </g>
                            <path d="M1.4138233,1.8957949 L14.0796418,1.8957949 L14.0796418,4.0049464 C14.0796418,5.1695449 13.1346642,6.1140979 11.9693989,6.1140979 L3.5240662,6.1140979 C2.3599126,6.1140979 1.4138233,5.1676064 1.4138233,4.0049464 L1.4138233,1.8957949 Z" id="Shape" stroke="#673AB7" stroke-width="2"></path>
                        </g>
                    </g>
                    <polygon id="Path-34" fill="#673AB7" fill-rule="nonzero" opacity="0.0916511194" points="100.125965 44.2218726 107.456942 34.2519685 132.491893 34.4279381"></polygon>
                    <polygon id="Path-2" fill="#673AB7" fill-rule="nonzero" opacity="0.0916511194" points="65.219933 105.11811 61.0918326 117.990379 102.266627 117.91764 98.6241481 105.202334"></polygon>
                </g>
                <g id="Group-9" transform="translate(154.000000, 0.000000)" fill-rule="nonzero">
                    <path d="M0,25.1282051 C0,43.974359 25,71.7948718 25,71.7948718 C25,71.7948718 50,43.974359 50,25.1282051 C50,11.2358974 38.8214286,-2.27373675e-13 25,-2.27373675e-13 C11.1785714,-2.27373675e-13 0,11.2358974 0,25.1282051 Z" id="Path" fill="#673AB7"></path>
                    <polygon id="Icon-Shape-Copy-3" fill="#FFFFFF" points="32.9739567 21 36.7467923 24.7896224 22.0780191 39.5236627 14 31.4097013 17.7918824 27.6277696 22.07857 31.9335303"></polygon>
                </g>
                <g id="Group-15" transform="translate(280.000000, 112.000000)">
                    <g id="Group-18-Copy" transform="translate(0.000000, 43.000000)">
                        <path d="M16.3882043,73.2673664 C16.3882043,70.6761955 16.266639,29.5039508 16.266639,29.5039508 L64.7372691,30.0418373 L65.6662836,74.3259117 L81.9739439,74.3259117 L81.6892252,22.8183342 L78.0825758,16.7637612 L72.5340812,14.4571661 L62.9777718,14.2574526 L10.1819777,14.1732283 L5.4831603,15.8685598 L1.91937862,19.9125986 L0.990364073,24.7561293 L0.38317757,74.1319408 C0.38317757,74.1319408 16.3882043,75.8585373 16.3882043,73.2673664 Z" id="Path-67"></path>
                        <polyline id="Path-36-Copy" stroke="#673AB7" stroke-width="3" points="15.1688338 73.9781658 15.1688338 29.5275591 64.4060618 29.5275591 64.5947109 73.9781658"></polyline>
                        <path d="M16.3516863,36 L64.3807106,36" id="Path-38-Copy-2" stroke="#673AB7" stroke-width="2"></path>
                        <path d="M16.3516863,42 L64.3807106,42" id="Path-38-Copy-3" stroke="#673AB7" stroke-width="2"></path>
                        <path d="M0.404375308,74.8768886 L0.382577355,22.1715941 C0.380750409,17.7542187 3.95809289,14.1732283 8.38015423,14.1732283 L72.9434196,14.1732283 C77.3621863,14.1732283 80.9457812,17.7474359 80.9476124,22.1795376 L80.9694104,74.9371754" id="Path-35-Copy-2" stroke="#673AB7" stroke-width="4"></path>
                        <g id="Group" transform="translate(28.180211, 0.000000)">
                            <g id="Oval-8">
                                <g id="path-21-link" fill="#FFFFFF">
                                    <ellipse id="path-21" cx="12.1242381" cy="12.1062992" rx="12.1242381" ry="12.1062992"></ellipse>
                                </g>
                                <ellipse id="Oval" stroke="#673AB7" stroke-width="2" cx="12.1242381" cy="12.1062992" rx="11.1242381" ry="11.1062992"></ellipse>
                            </g>
                            <path d="M17.1760929,14.9038075 C16.2912227,16.4944854 14.7574972,17.5037838 13.0854182,17.7870956 C12.9648213,16.4856319 12.6422432,15.2240089 12.1398797,14.0435429 C11.940118,13.5743077 11.7129816,13.1168772 11.4592103,12.675678 C11.294222,12.389415 11.117396,12.1097921 10.9309517,11.8368094 C9.8507591,11.7172872 8.78980277,11.4612736 7.77841693,11.0768844 C9.67319319,12.8121694 10.8954386,15.1908083 11.174365,17.792998 C10.5395669,17.6889694 9.91216732,17.4772233 9.31880122,17.1489062 C6.78848696,15.750054 5.72309148,12.7243722 6.70414315,10.099311 C7.89605434,10.6474899 9.1538129,11.0001541 10.4308078,11.1573037 C10.9479685,11.2214915 11.4688285,11.2532165 11.9896885,11.2532165 C12.3226246,11.2532165 12.6555607,11.2399363 12.987017,11.2133758 C13.6255145,10.3427821 14.3772102,9.55113215 15.2265671,8.85982177 C12.7561814,9.63819151 10.0549599,9.50317572 7.65782008,8.44739647 C8.39545847,7.54876675 9.38686816,6.89434593 10.5299487,6.56750442 C11.0574675,6.41699501 11.5953442,6.3424781 12.1302615,6.3424781 C13.0979957,6.3424781 14.055372,6.58742478 14.9247051,7.06846466 C15.5661619,7.42260445 16.1225351,7.88667514 16.5760681,8.43337844 C15.5040139,9.18887665 14.5680935,10.1000488 13.7919825,11.1248408 C13.2925784,11.7844262 12.8590216,12.4912302 12.4987108,13.2334482 C12.9293081,14.2508623 13.2296905,15.3272997 13.3843208,16.4361999 C13.940694,13.905576 15.4115316,11.6317034 17.5319646,10.085293 C17.5859742,10.2276867 17.6355447,10.3730316 17.6777166,10.5205898 C18.1031349,12.000599 17.9248291,13.5573385 17.1760929,14.9038075 Z M19.5066455,9.99823363 C18.941394,8.03128222 17.6414635,6.40150139 15.847308,5.40917219 C14.0531524,4.41684299 11.9785906,4.1807498 10.0053894,4.7444223 C8.03292807,5.30809479 6.39858181,6.60365619 5.40347284,8.39279992 C3.34962711,12.0869206 4.69172947,16.7593524 8.39619833,18.8074609 C9.57331237,19.4589305 10.8495674,19.7680651 12.1088056,19.7680651 C14.8122467,19.7673273 17.4380026,18.3433902 18.8400335,15.8238332 C19.8351424,14.0346894 20.071897,11.965185 19.5066455,9.99823363 L19.5066455,9.99823363 Z" id="Fill-12-Copy-5" fill="#673AB7" fill-rule="nonzero"></path>
                        </g>
                        <path d="M3.93916233,74.2600337 L3.93173507,22.8680057 C3.93173507,22.8680057 5.2101528,17.4792147 9.80762891,17.4792147 C14.405105,17.4792147 27.3823912,17.1259843 27.3823912,17.1259843 L31.1935636,22.8680057 L13.1354258,22.8680057 C13.1354258,22.8680057 10.406452,23.0386089 10.406452,27.3919618 C10.406452,31.7453148 10.4138793,73.7937354 10.4138793,73.7937354" id="Path-20" fill="#673AB7" fill-rule="nonzero" opacity="0.0916511194"></path>
                        <g id="Group-3" transform="translate(22.265949, 50.196850)">
                            <polyline id="Path-48" stroke="#673AB7" stroke-width="2" fill="#FFFFFF" fill-rule="nonzero" points="5.24138233 10.623688 8.46834309 0 27.9423018 0 31.5887387 10.623688"></polyline>
                            <g id="Rectangle-10" transform="translate(0.000000, 9.000000)">
                                <g id="path-22-link" fill="#FFFFFF">
                                    <path d="M-7.10542736e-15,5.9163331 C-7.10542736e-15,3.091012 2.28674856,0.80063662 5.10577414,0.80063662 L30.7963712,0.80063662 C33.6162124,0.80063662 35.9021454,3.0967609 35.9021454,5.9163331 L35.9021454,10.0323718 C35.9021454,10.5844676 35.4482096,11.0320297 34.9044453,11.0320297 L0.997700114,11.0320297 C0.446685556,11.0320297 -7.10542736e-15,10.5923995 -7.10542736e-15,10.0323718 L-7.10542736e-15,5.9163331 Z" id="path-22"></path>
                                </g>
                                <path d="M0.997700114,10.0320297 C0.995431246,10.0320297 1,10.0365823 1,10.0323718 L0.997700114,10.0320297 Z M34.9021339,10.03203 C34.9021339,10.0320299 34.9021339,10.0320298 34.9021339,10.0320297 C34.9019774,10.0298071 34.9002985,10.0310996 34.9021454,10.0317378 C34.902634,10.0319066 34.9033695,10.0320297 34.9044453,10.0320297 L34.9021339,10.0320297 L34.9021339,10.0320297 L1,10.0320297 L1,5.9163331 C1,3.6431694 2.83916195,1.8006366 5.10577414,1.8006366 L30.7963712,1.8006366 C33.0613383,1.8006366 34.9021454,3.6464527 34.9021454,5.9163331 L34.9021454,10.0317378 L34.9021454,10.0320297 C34.9021454,10.0322496 34.9021414,10.0321358 34.9021339,10.03203 Z" id="Shape" stroke="#673AB7" stroke-width="2"></path>
                            </g>
                            <path d="M13.6028037,14.7637795 C13.6028037,14.7637795 15.9891305,15.8131939 18.2418883,15.8131939 C20.494646,15.8131939 22.6583542,14.7637795 22.6583542,14.7637795" id="Path-31" stroke="#673AB7" stroke-linecap="round"></path>
                            <ellipse id="Oval-7" fill="#673AB7" fill-rule="nonzero" cx="6.22414152" cy="15.3546137" rx="1.63793198" ry="1.63372244"></ellipse>
                            <ellipse id="Oval-7-Copy-2" fill="#673AB7" fill-rule="nonzero" cx="29.810362" cy="15.3546137" rx="1.63793198" ry="1.63372244"></ellipse>
                            <g id="Rectangle" transform="translate(2.000000, 18.000000)">
                                <g id="path-23-link" fill="#FFFFFF">
                                    <path d="M0.62069117,0.9478975 L7.9536004,0.9478975 L7.9536004,2.5024732 C7.9536004,3.3610417 7.25049023,4.0570489 6.39847895,4.0570489 L2.17581261,4.0570489 C1.31694275,4.0570489 0.62069117,3.3670275 0.62069117,2.5024732 L0.62069117,0.9478975 Z" id="path-23"></path>
                                </g>
                                <path d="M1.12069117,1.4478975 L7.4536004,1.4478975 L7.4536004,2.5024732 C7.4536004,3.0821581 6.97709565,3.5570489 6.39847895,3.5570489 L2.17581261,3.5570489 C1.59067476,3.5570489 1.12069117,3.0884798 1.12069117,2.5024732 L1.12069117,1.4478975 Z" id="Shape" stroke="#673AB7"></path>
                            </g>
                            <g id="Rectangle-Copy-3" transform="translate(26.000000, 18.000000)">
                                <g id="path-24-link" fill="#FFFFFF">
                                    <path d="M0.2069117,0.9478975 L7.5398209,0.9478975 L7.5398209,2.5024732 C7.5398209,3.3610417 6.8367107,4.0570489 5.9846994,4.0570489 L1.7620331,4.0570489 C0.9031632,4.0570489 0.2069117,3.3670275 0.2069117,2.5024732 L0.2069117,0.9478975 Z" id="path-24"></path>
                                </g>
                                <path d="M0.7069117,1.4478975 L7.0398209,1.4478975 L7.0398209,2.5024732 C7.0398209,3.0821581 6.5633161,3.5570489 5.9846994,3.5570489 L1.7620331,3.5570489 C1.1768952,3.5570489 0.7069117,3.0884798 0.7069117,2.5024732 L0.7069117,1.4478975 Z" id="Shape" stroke="#673AB7"></path>
                            </g>
                        </g>
                        <polygon id="Path-34" fill="#673AB7" fill-rule="nonzero" opacity="0.0916511194" points="50.0629825 22.1109363 53.7284708 17.1259843 66.2459467 17.213969"></polygon>
                        <polygon id="Path-2" fill="#673AB7" fill-rule="nonzero" opacity="0.0916511194" points="32.6099665 52.5590551 30.5459163 58.9951893 51.1333137 58.9588198 49.3120741 52.6011672"></polygon>
                    </g>
                    <g id="Group-9-Copy-2" transform="translate(27.000000, 0.000000)" fill-rule="nonzero">
                        <path d="M0,13.2621083 C0,23.2086895 13,37.8917379 13,37.8917379 C13,37.8917379 26,23.2086895 26,13.2621083 C26,5.93005698 20.1871429,-1.20792265e-13 13,-1.20792265e-13 C5.81285714,-1.20792265e-13 0,5.93005698 0,13.2621083 Z" id="Path" fill="#673AB7"></path>
                        <polygon id="Icon-Shape-Copy-3" fill="#FFFFFF" points="17.1464575 11.0833333 19.108332 13.0834118 11.4805699 20.8597108 7.28 16.5773424 9.25177884 14.5813229 11.4808564 16.8538077"></polygon>
                    </g>
                </g>
                <g id="Group-15-Copy-3" transform="translate(0.000000, 112.000000)">
                    <g id="Group-18-Copy" transform="translate(0.000000, 43.000000)">
                        <path d="M16.3882043,73.2673664 C16.3882043,70.6761955 16.266639,29.5039508 16.266639,29.5039508 L64.7372691,30.0418373 L65.6662836,74.3259117 L81.9739439,74.3259117 L81.6892252,22.8183342 L78.0825758,16.7637612 L72.5340812,14.4571661 L62.9777718,14.2574526 L10.1819777,14.1732283 L5.4831603,15.8685598 L1.91937862,19.9125986 L0.990364073,24.7561293 L0.38317757,74.1319408 C0.38317757,74.1319408 16.3882043,75.8585373 16.3882043,73.2673664 Z" id="Path-67"></path>
                        <polyline id="Path-36-Copy" stroke="#673AB7" stroke-width="3" points="15.1688338 73.9781658 15.1688338 29.5275591 64.4060618 29.5275591 64.5947109 73.9781658"></polyline>
                        <path d="M16.3516863,36 L64.3807106,36" id="Path-38-Copy-2" stroke="#673AB7" stroke-width="2"></path>
                        <path d="M16.3516863,42 L64.3807106,42" id="Path-38-Copy-3" stroke="#673AB7" stroke-width="2"></path>
                        <path d="M0.404375308,74.8768886 L0.382577355,22.1715941 C0.380750409,17.7542187 3.95809289,14.1732283 8.38015423,14.1732283 L72.9434196,14.1732283 C77.3621863,14.1732283 80.9457812,17.7474359 80.9476124,22.1795376 L80.9694104,74.9371754" id="Path-35-Copy-2" stroke="#673AB7" stroke-width="4"></path>
                        <g id="Group" transform="translate(28.180211, 0.000000)">
                            <g id="Oval-8">
                                <g id="path-25-link" fill="#FFFFFF">
                                    <ellipse id="path-25" cx="12.1242381" cy="12.1062992" rx="12.1242381" ry="12.1062992"></ellipse>
                                </g>
                                <ellipse id="Oval" stroke="#673AB7" stroke-width="2" cx="12.1242381" cy="12.1062992" rx="11.1242381" ry="11.1062992"></ellipse>
                            </g>
                            <path d="M17.1760929,14.9038075 C16.2912227,16.4944854 14.7574972,17.5037838 13.0854182,17.7870956 C12.9648213,16.4856319 12.6422432,15.2240089 12.1398797,14.0435429 C11.940118,13.5743077 11.7129816,13.1168772 11.4592103,12.675678 C11.294222,12.389415 11.117396,12.1097921 10.9309517,11.8368094 C9.8507591,11.7172872 8.78980277,11.4612736 7.77841693,11.0768844 C9.67319319,12.8121694 10.8954386,15.1908083 11.174365,17.792998 C10.5395669,17.6889694 9.91216732,17.4772233 9.31880122,17.1489062 C6.78848696,15.750054 5.72309148,12.7243722 6.70414315,10.099311 C7.89605434,10.6474899 9.1538129,11.0001541 10.4308078,11.1573037 C10.9479685,11.2214915 11.4688285,11.2532165 11.9896885,11.2532165 C12.3226246,11.2532165 12.6555607,11.2399363 12.987017,11.2133758 C13.6255145,10.3427821 14.3772102,9.55113215 15.2265671,8.85982177 C12.7561814,9.63819151 10.0549599,9.50317572 7.65782008,8.44739647 C8.39545847,7.54876675 9.38686816,6.89434593 10.5299487,6.56750442 C11.0574675,6.41699501 11.5953442,6.3424781 12.1302615,6.3424781 C13.0979957,6.3424781 14.055372,6.58742478 14.9247051,7.06846466 C15.5661619,7.42260445 16.1225351,7.88667514 16.5760681,8.43337844 C15.5040139,9.18887665 14.5680935,10.1000488 13.7919825,11.1248408 C13.2925784,11.7844262 12.8590216,12.4912302 12.4987108,13.2334482 C12.9293081,14.2508623 13.2296905,15.3272997 13.3843208,16.4361999 C13.940694,13.905576 15.4115316,11.6317034 17.5319646,10.085293 C17.5859742,10.2276867 17.6355447,10.3730316 17.6777166,10.5205898 C18.1031349,12.000599 17.9248291,13.5573385 17.1760929,14.9038075 Z M19.5066455,9.99823363 C18.941394,8.03128222 17.6414635,6.40150139 15.847308,5.40917219 C14.0531524,4.41684299 11.9785906,4.1807498 10.0053894,4.7444223 C8.03292807,5.30809479 6.39858181,6.60365619 5.40347284,8.39279992 C3.34962711,12.0869206 4.69172947,16.7593524 8.39619833,18.8074609 C9.57331237,19.4589305 10.8495674,19.7680651 12.1088056,19.7680651 C14.8122467,19.7673273 17.4380026,18.3433902 18.8400335,15.8238332 C19.8351424,14.0346894 20.071897,11.965185 19.5066455,9.99823363 L19.5066455,9.99823363 Z" id="Fill-12-Copy-5" fill="#673AB7" fill-rule="nonzero"></path>
                        </g>
                        <path d="M3.93916233,74.2600337 L3.93173507,22.8680057 C3.93173507,22.8680057 5.2101528,17.4792147 9.80762891,17.4792147 C14.405105,17.4792147 27.3823912,17.1259843 27.3823912,17.1259843 L31.1935636,22.8680057 L13.1354258,22.8680057 C13.1354258,22.8680057 10.406452,23.0386089 10.406452,27.3919618 C10.406452,31.7453148 10.4138793,73.7937354 10.4138793,73.7937354" id="Path-20" fill="#673AB7" fill-rule="nonzero" opacity="0.0916511194"></path>
                        <g id="Group-3" transform="translate(22.265949, 50.196850)">
                            <polyline id="Path-48" stroke="#673AB7" stroke-width="2" fill="#FFFFFF" fill-rule="nonzero" points="5.24138233 10.623688 8.46834309 0 27.9423018 0 31.5887387 10.623688"></polyline>
                            <g id="Rectangle-10" transform="translate(0.000000, 9.000000)">
                                <g id="path-26-link" fill="#FFFFFF">
                                    <path d="M-7.10542736e-15,5.9163331 C-7.10542736e-15,3.091012 2.28674856,0.80063662 5.10577414,0.80063662 L30.7963712,0.80063662 C33.6162124,0.80063662 35.9021454,3.0967609 35.9021454,5.9163331 L35.9021454,10.0323718 C35.9021454,10.5844676 35.4482096,11.0320297 34.9044453,11.0320297 L0.997700114,11.0320297 C0.446685556,11.0320297 -7.10542736e-15,10.5923995 -7.10542736e-15,10.0323718 L-7.10542736e-15,5.9163331 Z" id="path-26"></path>
                                </g>
                                <path d="M0.997700114,10.0320297 C0.995431246,10.0320297 1,10.0365823 1,10.0323718 L0.997700114,10.0320297 Z M34.9021339,10.03203 C34.9021339,10.0320299 34.9021339,10.0320298 34.9021339,10.0320297 C34.9019774,10.0298071 34.9002985,10.0310996 34.9021454,10.0317378 C34.902634,10.0319066 34.9033695,10.0320297 34.9044453,10.0320297 L34.9021339,10.0320297 L34.9021339,10.0320297 L1,10.0320297 L1,5.9163331 C1,3.6431694 2.83916195,1.8006366 5.10577414,1.8006366 L30.7963712,1.8006366 C33.0613383,1.8006366 34.9021454,3.6464527 34.9021454,5.9163331 L34.9021454,10.0317378 L34.9021454,10.0320297 C34.9021454,10.0322496 34.9021414,10.0321358 34.9021339,10.03203 Z" id="Shape" stroke="#673AB7" stroke-width="2"></path>
                            </g>
                            <path d="M13.6028037,14.7637795 C13.6028037,14.7637795 15.9891305,15.8131939 18.2418883,15.8131939 C20.494646,15.8131939 22.6583542,14.7637795 22.6583542,14.7637795" id="Path-31" stroke="#673AB7" stroke-linecap="round"></path>
                            <ellipse id="Oval-7" fill="#673AB7" fill-rule="nonzero" cx="6.22414152" cy="15.3546137" rx="1.63793198" ry="1.63372244"></ellipse>
                            <ellipse id="Oval-7-Copy-2" fill="#673AB7" fill-rule="nonzero" cx="29.810362" cy="15.3546137" rx="1.63793198" ry="1.63372244"></ellipse>
                            <g id="Rectangle" transform="translate(2.000000, 18.000000)">
                                <g id="path-27-link" fill="#FFFFFF">
                                    <path d="M0.62069117,0.9478975 L7.9536004,0.9478975 L7.9536004,2.5024732 C7.9536004,3.3610417 7.25049023,4.0570489 6.39847895,4.0570489 L2.17581261,4.0570489 C1.31694275,4.0570489 0.62069117,3.3670275 0.62069117,2.5024732 L0.62069117,0.9478975 Z" id="path-27"></path>
                                </g>
                                <path d="M1.12069117,1.4478975 L7.4536004,1.4478975 L7.4536004,2.5024732 C7.4536004,3.0821581 6.97709565,3.5570489 6.39847895,3.5570489 L2.17581261,3.5570489 C1.59067476,3.5570489 1.12069117,3.0884798 1.12069117,2.5024732 L1.12069117,1.4478975 Z" id="Shape" stroke="#673AB7"></path>
                            </g>
                            <g id="Rectangle-Copy-3" transform="translate(26.000000, 18.000000)">
                                <g id="path-28-link" fill="#FFFFFF">
                                    <path d="M0.2069117,0.9478975 L7.5398209,0.9478975 L7.5398209,2.5024732 C7.5398209,3.3610417 6.8367107,4.0570489 5.9846994,4.0570489 L1.7620331,4.0570489 C0.9031632,4.0570489 0.2069117,3.3670275 0.2069117,2.5024732 L0.2069117,0.9478975 Z" id="path-28"></path>
                                </g>
                                <path d="M0.7069117,1.4478975 L7.0398209,1.4478975 L7.0398209,2.5024732 C7.0398209,3.0821581 6.5633161,3.5570489 5.9846994,3.5570489 L1.7620331,3.5570489 C1.1768952,3.5570489 0.7069117,3.0884798 0.7069117,2.5024732 L0.7069117,1.4478975 Z" id="Shape" stroke="#673AB7"></path>
                            </g>
                        </g>
                        <polygon id="Path-34" fill="#673AB7" fill-rule="nonzero" opacity="0.0916511194" points="50.0629825 22.1109363 53.7284708 17.1259843 66.2459467 17.213969"></polygon>
                        <polygon id="Path-2" fill="#673AB7" fill-rule="nonzero" opacity="0.0916511194" points="32.6099665 52.5590551 30.5459163 58.9951893 51.1333137 58.9588198 49.3120741 52.6011672"></polygon>
                    </g>
                    <g id="Group-9-Copy-2" transform="translate(27.000000, 0.000000)" fill-rule="nonzero">
                        <path d="M0,13.2621083 C0,23.2086895 13,37.8917379 13,37.8917379 C13,37.8917379 26,23.2086895 26,13.2621083 C26,5.93005698 20.1871429,-1.20792265e-13 13,-1.20792265e-13 C5.81285714,-1.20792265e-13 0,5.93005698 0,13.2621083 Z" id="Path" fill="#673AB7"></path>
                        <polygon id="Icon-Shape-Copy-3" fill="#FFFFFF" points="17.1464575 11.0833333 19.108332 13.0834118 11.4805699 20.8597108 7.28 16.5773424 9.25177884 14.5813229 11.4808564 16.8538077"></polygon>
                    </g>
                </g>
            </g>
        </g>
    </g>
</svg>